<svg width="28" height="21" viewBox="0 0 28 21" fill="none" xmlns="http://www.w3.org/2000/svg">
<rect x="0.0838013" y="0.75" width="27" height="18.5625" fill="#EEF3F8"/>
<rect x="0.0838013" y="0.75" width="15.1875" height="11.8125" fill="#41479B"/>
<rect x="15.2713" y="0.75" width="11.8125" height="1.6875" fill="#DC251C"/>
<rect x="15.2713" y="4.125" width="11.8125" height="1.6875" fill="#DC251C"/>
<rect x="15.2713" y="7.5" width="11.8125" height="1.6875" fill="#DC251C"/>
<rect x="15.2713" y="10.875" width="11.8125" height="1.6875" fill="#DC251C"/>
<rect x="0.0838013" y="14.25" width="27" height="1.6875" fill="#DC251C"/>
<rect x="0.0838013" y="17.625" width="27" height="1.6875" fill="#DC251C"/>
<rect x="1.7713" y="2.4375" width="1.6875" height="1.6875" fill="#C5D0EC"/>
<rect x="5.1463" y="2.4375" width="1.6875" height="1.6875" fill="#C5D0EC"/>
<rect x="8.5213" y="2.4375" width="1.6875" height="1.6875" fill="#C5D0EC"/>
<rect x="11.8963" y="2.4375" width="1.6875" height="1.6875" fill="#C5D0EC"/>
<rect x="1.7713" y="5.8125" width="1.6875" height="1.6875" fill="#C5D0EC"/>
<rect x="5.1463" y="5.8125" width="1.6875" height="1.6875" fill="#C5D0EC"/>
<rect x="8.5213" y="5.8125" width="1.6875" height="1.6875" fill="#C5D0EC"/>
<rect x="3.4588" y="7.5" width="1.6875" height="1.6875" fill="#C5D0EC"/>
<rect x="6.8338" y="7.5" width="1.6875" height="1.6875" fill="#C5D0EC"/>
<rect x="10.2088" y="7.5" width="1.6875" height="1.6875" fill="#C5D0EC"/>
<rect x="3.4588" y="4.125" width="1.6875" height="1.6875" fill="#C5D0EC"/>
<rect x="6.8338" y="4.125" width="1.6875" height="1.6875" fill="#C5D0EC"/>
<rect x="10.2088" y="4.125" width="1.6875" height="1.6875" fill="#C5D0EC"/>
<rect x="11.8963" y="5.8125" width="1.6875" height="1.6875" fill="#C5D0EC"/>
<rect x="1.7713" y="9.1875" width="1.6875" height="1.6875" fill="#C5D0EC"/>
<rect x="5.1463" y="9.1875" width="1.6875" height="1.6875" fill="#C5D0EC"/>
<rect x="8.5213" y="9.1875" width="1.6875" height="1.6875" fill="#C5D0EC"/>
<rect x="11.8963" y="9.1875" width="1.6875" height="1.6875" fill="#C5D0EC"/>
</svg>
